<?xml version="1.0" encoding="UTF-8"?>
<svg xmlns="http://www.w3.org/2000/svg" xmlns:xlink="http://www.w3.org/1999/xlink" width="360pt" height="167pt" viewBox="0 0 360 167" version="1.1">
<defs>
<clipPath id="clip1">
  <path d="M 0 0 L 360 0 L 360 166.558594 L 0 166.558594 Z M 0 0 "/>
</clipPath>
</defs>
<g id="surface1">
<g clip-path="url(#clip1)" clip-rule="nonzero">
<path style="fill:none;stroke-width:1.6;stroke-linecap:square;stroke-linejoin:miter;stroke:rgb(0%,100%,0%);stroke-opacity:1;stroke-miterlimit:3.25;" d="M 85.011719 130.886719 L 152.875 131.050781 L 412.164063 130.230469 L 213.449219 131.058594 L 107.578125 131.9375 L 226.414063 131.058594 L 73.773438 132.863281 L 81.019531 133.097656 L 400.8125 128.484375 L 401.066406 128.183594 L 418.800781 127.542969 L 237.109375 131.058594 L 129.640625 133.5625 L 384 127.414063 L 143.765625 133.628906 L 239.496094 131.058594 L 393.199219 126.332031 L 111.578125 135.277344 L 154.882813 134.035156 L 387.9375 125.671875 L 371.757813 126.023438 L 175.265625 133.738281 L 73.199219 138.203125 L 152.59375 135.015625 L 308.40625 127.984375 L 409.191406 123.003906 L 400.816406 123.109375 L 308.566406 127.613281 L 192.296875 133.773438 L 104.960938 138.761719 L 73.308594 140.867188 L 97.792969 139.738281 L 161.929688 136.066406 L 243.074219 131.058594 L 320.429688 125.992188 L 379.28125 121.871094 L 412.085938 119.332031 L 417.589844 118.617188 L 399.058594 119.644531 L 362.359375 122.113281 L 314.339844 125.597656 L 261.640625 129.636719 L 209.945313 133.800781 L 163.636719 137.714844 L 125.699219 141.097656 L 97.835938 143.753906 L 80.644531 145.570313 L 73.875 146.507813 L 76.652344 146.585938 L 87.707031 145.867188 L 105.546875 144.449219 L 128.609375 142.449219 L 155.359375 139.988281 L 184.375 137.191406 L 214.375 134.179688 L 273.144531 127.933594 L 300.277344 124.890625 L 325.113281 121.996094 L 366.449219 116.886719 L 382.546875 114.75 L 395.515625 112.925781 L 405.390625 111.429688 L 412.273438 110.265625 L 416.53125 109.375 L 417.695313 108.863281 L 416.035156 108.71875 L 411.835938 108.910156 L 405.40625 109.425781 L 397.039063 110.230469 L 387.019531 111.296875 L 375.632813 112.601563 L 363.140625 114.117188 L 349.777344 115.804688 L 321.324219 119.617188 L 262.457031 128.277344 L 248.140625 130.535156 L 234.1875 132.796875 L 207.675781 137.265625 L 161.574219 145.671875 L 151.65625 147.613281 L 142.410156 149.476563 L 125.929688 152.957031 L 118.6875 154.5625 L 112.089844 156.078125 L 100.789063 158.835938 L 96.050781 160.070313 L 91.894531 161.214844 L 88.296875 162.265625 L 85.234375 163.222656 L 82.691406 164.09375 L 80.636719 164.871094 L 79.054688 165.558594 L 77.914063 166.160156 L 77.199219 166.679688 L 76.882813 167.117188 L 76.941406 167.472656 L 77.355469 167.753906 L 78.105469 167.957031 L 79.164063 168.089844 L 80.519531 168.152344 L 82.144531 168.144531 L 84.023438 168.074219 L 86.140625 167.9375 L 88.472656 167.746094 L 91.007813 167.492188 L 93.730469 167.1875 L 96.625 166.828125 L 102.863281 165.960938 L 106.183594 165.457031 L 109.621094 164.90625 L 116.800781 163.691406 L 132.089844 160.824219 L 135.785156 160.082031 L 139.519531 159.316406 L 147.066406 157.714844 L 162.332031 154.277344 L 192.648438 146.703125 L 196.355469 145.710938 L 200.035156 144.710938 L 207.308594 142.6875 L 221.453125 138.582031 L 247.902344 130.257813 L 251.019531 129.214844 L 254.09375 128.175781 L 260.109375 126.097656 L 271.617188 121.96875 L 292.507813 113.875 L 294.925781 112.882813 L 297.296875 111.898438 L 301.917969 109.9375 L 310.664063 106.085938 L 326.257813 98.660156 L 328.003906 97.777344 L 329.714844 96.898438 L 333.035156 95.164063 L 339.273438 91.765625 L 350.261719 85.269531 L 351.503906 84.484375 L 352.71875 83.707031 L 355.0625 82.171875 L 359.4375 79.171875 L 367.015625 73.464844 L 367.859375 72.78125 L 368.683594 72.101563 L 370.265625 70.757813 L 373.183594 68.140625 L 373.863281 67.5 L 374.527344 66.863281 L 375.792969 65.613281 L 378.113281 63.175781 L 378.652344 62.578125 L 379.171875 61.988281 L 380.167969 60.820313 L 381.964844 58.554688 L 382.378906 58 L 382.777344 57.449219 L 383.53125 56.367188 L 384.875 54.257813 L 385.203125 53.699219 L 385.519531 53.144531 L 386.101563 52.054688 L 386.375 51.519531 L 386.632813 50.988281 L 387.109375 49.941406 L 387.328125 49.425781 L 387.53125 48.917969 L 387.726563 48.414063 L 387.90625 47.914063 L 388.074219 47.417969 L 388.234375 46.929688 L 388.511719 45.964844 L 388.636719 45.488281 L 388.75 45.019531 L 388.851563 44.554688 L 388.941406 44.09375 L 389.023438 43.636719 L 389.09375 43.1875 L 389.15625 42.738281 L 389.207031 42.296875 L 389.25 41.859375 L 389.28125 41.425781 L 389.308594 41 L 389.320313 40.574219 L 389.328125 40.15625 L 389.324219 39.738281 L 389.3125 39.328125 L 389.296875 38.921875 L 389.269531 38.519531 L 389.234375 38.121094 L 389.191406 37.726563 L 389.140625 37.335938 L 389.082031 36.949219 L 389.015625 36.566406 L 388.941406 36.191406 L 388.863281 35.816406 L 388.777344 35.445313 L 388.683594 35.078125 L 388.582031 34.714844 L 388.476563 34.359375 L 388.363281 34.003906 L 388.246094 33.652344 L 387.988281 32.960938 L 387.851563 32.621094 L 387.710938 32.28125 L 387.40625 31.621094 L 387.246094 31.292969 L 387.082031 30.972656 L 386.738281 30.335938 L 386.558594 30.023438 L 386.375 29.714844 L 385.988281 29.105469 L 385.167969 27.929688 L 384.964844 27.664063 L 384.757813 27.398438 L 384.339844 26.875 L 383.457031 25.863281 L 383.226563 25.617188 L 382.996094 25.375 L 382.523438 24.894531 L 381.542969 23.960938 L 381.289063 23.734375 L 381.035156 23.511719 L 380.519531 23.070313 L 379.457031 22.210938 L 377.226563 20.605469 L 376.9375 20.414063 L 376.648438 20.226563 L 376.066406 19.851563 L 374.875 19.132813 L 374.574219 18.957031 L 374.269531 18.785156 L 373.660156 18.445313 L 372.421875 17.785156 L 372.109375 17.625 L 371.792969 17.464844 L 371.160156 17.15625 L 369.882813 16.554688 L 367.273438 15.433594 L 366.914063 15.289063 L 366.554688 15.148438 L 365.835938 14.871094 L 364.382813 14.335938 L 364.015625 14.207031 L 363.652344 14.082031 L 362.917969 13.832031 L 361.441406 13.355469 L 361.070313 13.238281 L 360.699219 13.125 L 359.953125 12.902344 L 358.460938 12.476563 L 355.453125 11.703125 L 355.074219 11.613281 L 354.699219 11.523438 L 353.941406 11.351563 L 352.425781 11.019531 L 351.667969 10.863281 L 350.910156 10.714844 L 349.390625 10.425781 L 348.632813 10.292969 L 347.875 10.164063 L 346.355469 9.917969 L 345.972656 9.859375 L 345.59375 9.804688 L 344.835938 9.691406 L 343.320313 9.488281 L 342.949219 9.441406 L 342.574219 9.394531 L 341.832031 9.304688 L 340.347656 9.136719 L 339.976563 9.097656 L 339.609375 9.058594 L 338.867188 8.988281 L 337.390625 8.855469 L 337.023438 8.824219 L 336.652344 8.792969 L 335.183594 8.683594 L 334.082031 8.613281 L 333.71875 8.589844 L 332.984375 8.550781 L 332.621094 8.53125 L 332.253906 8.511719 L 331.527344 8.476563 L 331.164063 8.460938 L 330.800781 8.449219 L 330.4375 8.433594 L 329.710938 8.410156 L 329.351563 8.398438 L 328.988281 8.386719 L 328.628906 8.378906 L 328.265625 8.371094 L 327.1875 8.347656 L 326.109375 8.335938 L 325.753906 8.332031 L 325.394531 8.332031 L 325.039063 8.328125 L 324.683594 8.328125 L 324.324219 8.332031 L 323.613281 8.332031 L 323.257813 8.335938 L 322.90625 8.339844 L 322.550781 8.34375 L 322.199219 8.351563 L 321.84375 8.355469 L 320.4375 8.386719 L 320.085938 8.398438 L 319.757813 8.40625 L 319.433594 8.417969 L 318.78125 8.441406 L 318.132813 8.464844 L 317.484375 8.492188 L 316.835938 8.523438 L 316.191406 8.554688 L 314.90625 8.628906 L 314.265625 8.667969 L 313.628906 8.710938 L 312.359375 8.800781 L 312.042969 8.824219 L 311.726563 8.851563 L 311.09375 8.902344 L 309.839844 9.011719 L 309.214844 9.066406 L 308.589844 9.128906 L 307.347656 9.253906 L 304.886719 9.53125 L 304.582031 9.566406 L 304.277344 9.605469 L 303.667969 9.679688 L 302.457031 9.839844 L 300.054688 10.179688 L 299.734375 10.226563 L 299.410156 10.277344 L 298.769531 10.375 L 297.488281 10.578125 L 294.640625 11.070313 L 294.328125 11.128906 L 293.703125 11.242188 L 292.460938 11.480469 L 290 11.976563 L 289.695313 12.042969 L 289.390625 12.105469 L 288.78125 12.238281 L 287.574219 12.503906 L 285.1875 13.058594 L 280.523438 14.246094 L 280.253906 14.320313 L 279.988281 14.394531 L 279.453125 14.539063 L 278.394531 14.835938 L 276.296875 15.449219 L 272.191406 16.730469 L 271.941406 16.8125 L 271.6875 16.898438 L 271.1875 17.0625 L 270.1875 17.402344 L 268.210938 18.089844 L 264.351563 19.519531 L 264.121094 19.609375 L 263.886719 19.699219 L 263.425781 19.878906 L 262.503906 20.242188 L 260.683594 20.984375 L 257.128906 22.507813 L 256.910156 22.605469 L 256.695313 22.703125 L 256.257813 22.898438 L 255.394531 23.292969 L 253.6875 24.089844 L 250.351563 25.722656 L 249.90625 25.949219 L 249.464844 26.175781 L 248.585938 26.628906 L 246.851563 27.550781 L 243.480469 29.429688 L 237.097656 33.339844 L 236.917969 33.453125 L 236.738281 33.570313 L 236.382813 33.804688 L 235.675781 34.273438 L 234.28125 35.222656 L 231.566406 37.136719 L 226.429688 41.066406 L 226.265625 41.203125 L 226.097656 41.335938 L 225.765625 41.609375 L 225.105469 42.152344 L 223.808594 43.242188 L 221.296875 45.449219 L 216.597656 49.9375 L 216.460938 50.078125 L 216.324219 50.214844 L 216.050781 50.496094 L 215.507813 51.054688 L 214.445313 52.175781 L 212.394531 54.429688 L 208.582031 58.984375 L 208.371094 59.25 L 208.160156 59.519531 L 207.746094 60.054688 L 206.933594 61.125 L 205.367188 63.273438 L 205.269531 63.410156 L 205.175781 63.542969 L 204.613281 64.351563 L 203.878906 65.429688 L 202.472656 67.59375 L 202.378906 67.738281 L 202.285156 67.886719 L 202.101563 68.179688 L 201.738281 68.769531 L 201.03125 69.941406 L 199.679688 72.292969 L 199.601563 72.441406 L 199.519531 72.589844 L 199.359375 72.882813 L 199.039063 73.472656 L 198.417969 74.648438 L 197.242188 76.996094 L 197.179688 77.136719 L 196.980469 77.546875 L 196.726563 78.09375 L 196.222656 79.191406 L 195.277344 81.378906 L 195.21875 81.511719 L 195.164063 81.648438 L 195.050781 81.921875 L 194.832031 82.46875 L 194.402344 83.558594 L 193.597656 85.734375 L 193.546875 85.882813 L 193.496094 86.027344 L 193.390625 86.320313 L 193.191406 86.910156 L 192.804688 88.082031 L 192.09375 90.417969 L 192.007813 90.707031 L 191.925781 91 L 191.765625 91.578125 L 191.457031 92.738281 L 190.902344 95.046875 L 190.871094 95.1875 L 190.835938 95.328125 L 190.777344 95.613281 L 190.65625 96.175781 L 190.429688 97.296875 L 190.375 97.578125 L 190.320313 97.855469 L 190.21875 98.414063 L 190.027344 99.53125 L 190.003906 99.667969 L 189.980469 99.808594 L 189.851563 100.640625 L 189.695313 101.742188 L 189.675781 101.882813 L 189.660156 102.019531 L 189.625 102.292969 L 189.554688 102.84375 L 189.433594 103.9375 L 189.421875 104.066406 L 189.40625 104.191406 L 189.382813 104.445313 L 189.332031 104.953125 L 189.324219 105.082031 L 189.3125 105.207031 L 189.289063 105.460938 L 189.25 105.964844 L 189.238281 106.089844 L 189.230469 106.21875 L 189.210938 106.46875 L 189.179688 106.972656 L 189.148438 107.472656 L 189.125 107.972656 L 189.109375 108.222656 L 189.101563 108.472656 L 189.09375 108.597656 L 189.089844 108.722656 L 189.082031 108.96875 L 189.074219 109.21875 L 189.070313 109.339844 L 189.058594 109.714844 L 189.054688 109.960938 L 189.050781 110.082031 L 189.046875 110.207031 L 189.046875 110.332031 L 189.042969 110.453125 L 189.042969 110.699219 L 189.039063 110.824219 L 189.039063 112.191406 L 189.042969 112.320313 L 189.042969 112.453125 L 189.046875 112.585938 L 189.046875 112.71875 L 189.050781 112.847656 L 189.054688 112.980469 L 189.054688 113.113281 L 189.058594 113.242188 L 189.066406 113.507813 L 189.070313 113.636719 L 189.074219 113.769531 L 189.085938 114.03125 L 189.089844 114.160156 L 189.09375 114.292969 L 189.105469 114.550781 L 189.109375 114.683594 L 189.117188 114.8125 L 189.128906 115.070313 L 189.136719 115.203125 L 189.199219 116.234375 L 189.210938 116.363281 L 189.226563 116.621094 L 189.269531 117.132813 L 189.277344 117.261719 L 189.289063 117.390625 L 189.3125 117.644531 L 189.359375 118.15625 L 189.371094 118.28125 L 189.382813 118.410156 L 189.410156 118.660156 L 189.464844 119.167969 L 189.585938 120.171875 L 189.617188 120.40625 L 189.648438 120.636719 L 189.710938 121.101563 L 189.851563 122.027344 L 189.871094 122.140625 L 189.886719 122.257813 L 189.925781 122.484375 L 190 122.945313 L 190.164063 123.855469 L 190.1875 123.964844 L 190.207031 124.078125 L 190.25 124.304688 L 190.339844 124.757813 L 190.527344 125.652344 L 190.933594 127.417969 L 190.960938 127.527344 L 190.988281 127.632813 L 191.039063 127.847656 L 191.148438 128.273438 L 191.378906 129.121094 L 191.863281 130.792969 L 191.894531 130.898438 L 191.925781 131 L 191.992188 131.207031 L 192.121094 131.617188 L 192.390625 132.433594 L 192.957031 134.042969 L 193 134.152344 L 193.039063 134.261719 L 193.121094 134.476563 L 193.28125 134.902344 L 193.617188 135.753906 L 194.324219 137.425781 L 194.367188 137.527344 L 194.414063 137.628906 L 194.503906 137.835938 L 194.691406 138.246094 L 195.070313 139.054688 L 195.859375 140.644531 L 195.90625 140.738281 L 195.953125 140.828125 L 196.046875 141.011719 L 196.238281 141.375 L 196.628906 142.09375 L 197.433594 143.503906 L 197.535156 143.675781 L 197.640625 143.851563 L 197.847656 144.195313 L 198.269531 144.878906 L 199.136719 146.214844 L 199.199219 146.304688 L 199.257813 146.390625 L 199.378906 146.570313 L 199.621094 146.921875 L 200.113281 147.621094 L 201.121094 148.980469 L 201.183594 149.066406 L 201.246094 149.148438 L 201.375 149.316406 L 201.636719 149.644531 L 202.160156 150.296875 L 203.226563 151.570313 L 203.292969 151.644531 L 203.359375 151.722656 L 203.496094 151.875 L 203.761719 152.175781 L 204.304688 152.773438 L 205.40625 153.929688 L 205.96875 154.492188 L 206.535156 155.042969 L 207.6875 156.113281 L 207.753906 156.171875 L 207.824219 156.234375 L 207.957031 156.355469 L 208.230469 156.59375 L 208.78125 157.066406 L 209.890625 157.980469 L 209.960938 158.039063 L 210.171875 158.203125 L 210.453125 158.425781 L 211.019531 158.859375 L 212.160156 159.695313 L 212.472656 159.914063 L 212.785156 160.128906 L 213.414063 160.554688 L 214.683594 161.367188 L 214.765625 161.417969 L 214.84375 161.46875 L 215.003906 161.566406 L 215.324219 161.757813 L 215.96875 162.136719 L 217.261719 162.855469 L 217.339844 162.898438 L 217.414063 162.9375 L 217.566406 163.015625 L 217.871094 163.175781 L 218.480469 163.484375 L 219.710938 164.074219 L 219.785156 164.109375 L 219.863281 164.144531 L 220.015625 164.214844 L 220.324219 164.355469 L 220.941406 164.625 L 222.183594 165.132813 L 222.257813 165.160156 L 222.335938 165.191406 L 222.488281 165.25 L 223.402344 165.589844 L 224.625 166.007813 L 224.703125 166.035156 L 224.777344 166.058594 L 224.933594 166.109375 L 225.238281 166.207031 L 225.851563 166.390625 L 227.078125 166.734375 L 227.160156 166.757813 L 227.246094 166.777344 L 227.410156 166.820313 L 227.746094 166.90625 L 228.410156 167.0625 L 228.492188 167.082031 L 228.578125 167.101563 L 228.742188 167.140625 L 229.074219 167.210938 L 229.742188 167.347656 L 229.824219 167.367188 L 229.90625 167.382813 L 230.074219 167.414063 L 230.40625 167.476563 L 231.070313 167.589844 L 231.152344 167.605469 L 231.234375 167.617188 L 231.402344 167.644531 L 231.730469 167.695313 L 232.394531 167.789063 L 232.472656 167.800781 L 232.546875 167.808594 L 232.703125 167.828125 L 233.011719 167.867188 L 233.085938 167.875 L 233.164063 167.882813 L 233.316406 167.902344 L 233.625 167.933594 L 233.78125 167.949219 L 233.933594 167.964844 L 234.238281 167.992188 L 234.394531 168.007813 L 234.851563 168.042969 L 234.929688 168.050781 L 235.003906 168.054688 L 235.15625 168.066406 L 235.3125 168.074219 L 235.464844 168.085938 L 235.539063 168.089844 L 235.617188 168.09375 L 236.074219 168.117188 L 236.148438 168.121094 L 236.226563 168.121094 L 236.378906 168.128906 L 236.453125 168.132813 L 236.527344 168.132813 L 236.679688 168.136719 L 236.757813 168.140625 L 236.832031 168.140625 L 236.90625 168.144531 L 236.984375 168.144531 L 237.058594 168.148438 L 237.136719 168.148438 L 237.210938 168.152344 L 237.449219 168.152344 L 237.53125 168.15625 L 238.265625 168.15625 L 238.347656 168.152344 L 238.511719 168.152344 L 238.59375 168.148438 L 238.753906 168.148438 L 238.835938 168.144531 L 238.917969 168.144531 L 239 168.140625 L 239.078125 168.140625 L 239.242188 168.132813 L 239.324219 168.132813 L 239.402344 168.128906 L 239.566406 168.121094 L 239.644531 168.117188 L 239.726563 168.113281 L 239.886719 168.109375 L 239.96875 168.101563 L 240.050781 168.097656 L 240.210938 168.089844 L 240.289063 168.085938 L 240.371094 168.082031 L 240.53125 168.070313 L 240.613281 168.066406 L 240.691406 168.058594 L 241.171875 168.023438 L 241.253906 168.015625 L 241.332031 168.011719 L 241.492188 167.996094 L 241.808594 167.96875 L 242.445313 167.898438 L 242.515625 167.890625 L 242.738281 167.867188 L 243.617188 167.75 L 243.691406 167.738281 L 243.761719 167.726563 L 243.910156 167.707031 L 244.199219 167.660156 L 244.777344 167.5625 L 244.851563 167.550781 L 244.921875 167.539063 L 245.066406 167.511719 L 245.355469 167.460938 L 245.925781 167.347656 L 247.058594 167.09375 L 247.128906 167.078125 L 247.195313 167.0625 L 247.332031 167.027344 L 247.609375 166.960938 L 248.152344 166.820313 L 249.234375 166.511719 L 249.367188 166.472656 L 249.5 166.429688 L 249.765625 166.347656 L 250.296875 166.175781 L 251.34375 165.8125 L 251.484375 165.757813 L 251.621094 165.707031 L 251.902344 165.601563 L 252.457031 165.382813 L 253.546875 164.925781 L 253.617188 164.894531 L 253.683594 164.863281 L 253.816406 164.804688 L 254.085938 164.683594 L 254.617188 164.433594 L 255.664063 163.914063 L 255.726563 163.878906 L 255.785156 163.847656 L 255.90625 163.785156 L 256.144531 163.660156 L 256.621094 163.398438 L 257.550781 162.859375 L 257.609375 162.828125 L 257.667969 162.792969 L 257.78125 162.722656 L 258.011719 162.582031 L 258.464844 162.300781 L 259.351563 161.714844 L 259.410156 161.671875 L 259.46875 161.632813 L 259.589844 161.550781 L 259.824219 161.386719 L 260.289063 161.054688 L 261.195313 160.367188 L 261.25 160.324219 L 261.308594 160.28125 L 261.417969 160.195313 L 261.640625 160.015625 L 262.074219 159.660156 L 262.925781 158.925781 L 262.976563 158.882813 L 263.128906 158.742188 L 263.332031 158.558594 L 263.730469 158.1875 L 264.507813 157.425781 L 264.605469 157.328125 L 264.886719 157.035156 L 265.257813 156.644531 L 265.976563 155.84375 L 266.015625 155.796875 L 266.058594 155.75 L 266.136719 155.65625 L 266.300781 155.464844 L 266.617188 155.082031 L 267.234375 154.304688 L 267.273438 154.257813 L 267.308594 154.207031 L 267.53125 153.914063 L 267.824219 153.515625 L 268.386719 152.714844 L 268.421875 152.660156 L 268.460938 152.605469 L 268.535156 152.496094 L 268.679688 152.277344 L 268.964844 151.832031 L 269.511719 150.9375 L 269.542969 150.882813 L 269.578125 150.824219 L 269.644531 150.710938 L 269.773438 150.484375 L 270.027344 150.03125 L 270.507813 149.113281 L 270.5625 149.003906 L 270.613281 148.898438 L 270.722656 148.679688 L 270.925781 148.246094 L 271.320313 147.375 L 271.414063 147.15625 L 271.503906 146.9375 L 271.683594 146.496094 L 272.015625 145.609375 L 272.054688 145.5 L 272.09375 145.394531 L 272.171875 145.175781 L 272.316406 144.738281 L 272.589844 143.863281 L 272.621094 143.753906 L 272.652344 143.640625 L 272.714844 143.421875 L 272.835938 142.984375 L 273.054688 142.101563 L 273.066406 142.042969 L 273.082031 141.980469 L 273.105469 141.863281 L 273.160156 141.625 L 273.257813 141.144531 L 273.269531 141.085938 L 273.28125 141.023438 L 273.304688 140.90625 L 273.347656 140.664063 L 273.433594 140.1875 L 273.441406 140.125 L 273.453125 140.066406 L 273.46875 139.945313 L 273.507813 139.707031 L 273.515625 139.648438 L 273.523438 139.585938 L 273.542969 139.46875 L 273.574219 139.226563 L 273.589844 139.109375 L 273.605469 138.988281 L 273.632813 138.75 L 273.683594 138.269531 L 273.691406 138.214844 L 273.695313 138.160156 L 273.707031 138.046875 L 273.726563 137.824219 L 273.734375 137.714844 L 273.742188 137.601563 L 273.757813 137.378906 L 273.765625 137.269531 L 273.773438 137.15625 L 273.78125 137.046875 L 273.785156 136.9375 L 273.789063 136.878906 L 273.792969 136.824219 L 273.796875 136.714844 L 273.800781 136.660156 L 273.800781 136.601563 L 273.804688 136.492188 L 273.808594 136.4375 L 273.808594 136.382813 L 273.8125 136.328125 L 273.8125 136.269531 L 273.816406 136.214844 L 273.816406 136.160156 L 273.820313 136.050781 L 273.820313 135.9375 L 273.824219 135.882813 L 273.824219 135.71875 L 273.828125 135.664063 L 273.828125 135.058594 L 273.824219 135.003906 L 273.824219 134.835938 L 273.820313 134.78125 L 273.820313 134.667969 L 273.816406 134.605469 L 273.816406 134.542969 L 273.8125 134.484375 L 273.8125 134.421875 L 273.808594 134.359375 L 273.804688 134.238281 L 273.804688 134.179688 L 273.800781 134.117188 L 273.796875 133.996094 L 273.792969 133.933594 L 273.789063 133.875 L 273.78125 133.75 L 273.78125 133.691406 L 273.777344 133.628906 L 273.769531 133.507813 L 273.75 133.265625 L 273.746094 133.207031 L 273.742188 133.144531 L 273.734375 133.023438 L 273.710938 132.78125 L 273.707031 132.722656 L 273.703125 132.660156 L 273.691406 132.542969 L 273.664063 132.300781 L 273.660156 132.242188 L 273.652344 132.179688 L 273.640625 132.0625 L 273.609375 131.820313 L 273.59375 131.703125 L 273.582031 131.582031 L 273.546875 131.34375 L 273.53125 131.226563 L 273.511719 131.109375 L 273.503906 131.046875 L 273.496094 130.988281 L 273.484375 130.929688 L 273.476563 130.871094 " transform="matrix(1,0,0,1,-66,-5)"/>
</g>
</g>
</svg>
